<?xml version="1.0" encoding="UTF-8"?>
<svg version="1.1" xmlns="http://www.w3.org/2000/svg" width="225" height="225">
<path d="M0 0 C74.25 0 148.5 0 225 0 C225 74.25 225 148.5 225 225 C150.75 225 76.5 225 0 225 C0 150.75 0 76.5 0 0 Z " fill="#FEFEFE" transform="translate(0,0)"/>
<path d="M0 0 C0.98570984 -0.00018127 0.98570984 -0.00018127 1.99133301 -0.00036621 C13.82504207 0.03054246 35.25785276 0.19535276 44.4375 9.375 C44.53103163 11.06301985 44.55494791 12.75495207 44.55102539 14.44555664 C44.55094986 15.52660172 44.55087433 16.60764679 44.55079651 17.72145081 C44.54563522 18.8974736 44.54047394 20.0734964 44.53515625 21.28515625 C44.53303383 23.08091347 44.53303383 23.08091347 44.53086853 24.91294861 C44.52524979 28.75449066 44.51269411 32.59597543 44.5 36.4375 C44.49498741 39.03450437 44.49042409 41.63150965 44.48632812 44.22851562 C44.47527427 50.61069679 44.45851792 56.9928443 44.4375 63.375 C41.3574418 61.88363727 38.79245789 60.19343226 36.0625 58.125 C22.02218713 48.16762678 7.24423964 46.10936128 -9.5625 47.375 C-14.1515315 48.2322404 -18.26811676 49.56181597 -22.5625 51.375 C-23.42875 51.725625 -24.295 52.07625 -25.1875 52.4375 C-41.44968212 59.75548195 -53.16299167 73.92122823 -59.4375 90.3125 C-64.35529394 105.07726122 -62.39782007 121.31670882 -56.2421875 135.39453125 C-49.2478898 149.0582549 -37.85333023 159.30891119 -27.0625 169.9375 C-24.83175565 172.14062423 -22.60251621 174.34522227 -20.37609863 176.55271912 C-18.99887071 177.91767831 -17.61897864 179.2799556 -16.23620605 180.63929749 C-15.62136353 181.2476091 -15.006521 181.85592072 -14.37304688 182.48266602 C-13.82869995 183.01875992 -13.28435303 183.55485382 -12.72351074 184.10719299 C-11.5625 185.375 -11.5625 185.375 -11.5625 186.375 C-19.9946945 186.63097677 -28.4252416 186.82585719 -36.86037254 186.94493389 C-40.77827455 187.00211656 -44.69350127 187.07952272 -48.60986328 187.20483398 C-52.39674311 187.32523028 -56.18106797 187.39029672 -59.96971512 187.41864967 C-61.40764207 187.43882485 -62.845444 187.47822876 -64.28226852 187.53803062 C-70.42907076 187.78346064 -75.58619002 187.90996167 -80.65307617 183.97460938 C-83.24711868 181.31735385 -85.43562172 178.41863616 -87.5625 175.375 C-88.02830475 174.74753372 -88.4941095 174.12006744 -88.97402954 173.47358704 C-97.71629771 161.1252148 -102.94840181 146.94016179 -106.5625 132.375 C-106.75013916 131.62299316 -106.93777832 130.87098633 -107.13110352 130.09619141 C-113.35010472 102.54972348 -107.12763788 72.83378814 -92.3125 49.125 C-76.31318657 24.67308912 -51.3935837 8.41066464 -23.13842773 1.80859375 C-15.42981068 0.22021161 -7.85378751 -0.00998447 0 0 Z " fill="#010101" transform="translate(142.5625,15.625)"/>
<path d="M0 0 C0 25.08 0 50.16 0 76 C-24.75 76 -49.5 76 -75 76 C-73.36929725 72.73859449 -72.47115969 71.22140485 -70.03282166 68.7855835 C-69.42569839 68.17426575 -68.81857513 67.562948 -68.1930542 66.93310547 C-67.19631683 65.94479736 -67.19631683 65.94479736 -66.17944336 64.93652344 C-65.47850052 64.23368225 -64.77755768 63.53084106 -64.05537415 62.80670166 C-61.73838791 60.48601199 -59.41428244 58.17259827 -57.08984375 55.859375 C-55.48047563 54.25119875 -53.87147673 52.64265293 -52.26283264 51.03375244 C-48.89241828 47.66490206 -45.51866994 44.29943885 -42.14233398 40.93652344 C-37.80351595 36.61472917 -33.47134415 32.28634694 -29.14140987 27.95565414 C-25.82100328 24.63551872 -22.49800271 21.31799014 -19.17410469 18.0013504 C-17.57502482 16.40546336 -15.97655929 14.80896051 -14.37870598 13.2118454 C-12.1520338 10.98732836 -9.92210823 8.76612805 -7.69116211 6.54589844 C-7.0246463 5.87892944 -6.35813049 5.21196045 -5.67141724 4.52478027 C-1.1144755 0 -1.1144755 0 0 0 Z " fill="#040404" transform="translate(187,81)"/>
</svg>
