<svg version="1.1" id="Layer_1" xmlns="http://www.w3.org/2000/svg" xmlns:xlink="http://www.w3.org/1999/xlink" x="0px" y="0px"
	 width="100%" viewBox="0 0 226 223" enable-background="new 0 0 226 223" xml:space="preserve">
<path fill="#050503" opacity="1.000000" stroke="none" 
	d="
M182.000000,1.000000 
	C182.444443,1.000000 182.888901,1.000000 183.782715,1.369437 
	C185.369186,1.975098 186.504471,2.220626 187.643707,2.446167 
	C209.021271,6.678464 222.104370,20.015411 226.033737,41.531013 
	C226.130661,42.061794 226.668030,42.512142 227.000000,43.000000 
	C227.000000,43.000000 227.000000,43.500000 226.599365,43.929970 
	C226.127167,44.850555 225.993027,45.341164 225.992935,45.831799 
	C225.987106,80.054779 225.982056,114.277771 226.038208,148.500656 
	C226.040115,149.667633 226.665314,150.833572 227.000000,152.000000 
	C227.000000,162.020889 227.000000,172.041794 226.638687,182.630371 
	C225.920456,184.122955 225.458527,185.021820 225.222076,185.976517 
	C220.113251,206.603500 205.157257,220.112671 183.565094,223.077423 
	C138.715210,223.006149 94.330971,222.996658 49.946815,223.050308 
	C48.297497,223.052292 46.648922,223.669495 45.000000,224.000000 
	C44.555553,224.000000 44.111111,224.000000 43.255180,223.629913 
	C35.868843,220.184723 28.893984,217.109619 22.200752,213.896027 
	C22.928232,212.336548 23.139786,210.781021 23.864008,209.519913 
	C26.009232,205.784317 25.472015,202.630310 22.305796,199.799591 
	C20.474489,198.162323 18.212101,196.760498 16.984451,194.741516 
	C13.459551,188.944534 10.913841,182.836594 10.911579,175.726364 
	C10.907942,164.294907 10.104450,152.864273 10.071990,141.432068 
	C10.045671,132.163284 10.664245,122.892952 10.965969,113.622307 
	C10.986578,112.989098 10.748851,112.347473 10.631038,111.708519 
	C9.104732,111.619835 7.725736,111.539719 5.974436,111.437973 
	C6.112610,109.503654 6.223609,107.949760 6.339189,106.331741 
	C8.086198,106.331741 9.331495,106.331741 11.069516,106.331741 
	C10.703204,100.002991 10.586883,93.903412 9.932880,87.862045 
	C9.298325,82.000328 11.000413,75.489082 5.643144,70.688461 
	C5.189007,70.281509 5.935620,68.380692 6.315104,67.237152 
	C6.767412,65.874168 7.535394,64.614532 7.971481,63.247860 
	C8.853805,60.482712 9.836497,57.717930 10.355482,54.875874 
	C11.147942,50.536221 11.582538,46.131218 12.135759,42.002552 
	C7.857306,42.002552 5.024114,42.002552 2.136760,41.617706 
	C7.104516,18.125547 23.163046,3.703986 46.413025,1.916137 
	C90.263367,1.992862 133.647049,2.004932 177.030640,1.953025 
	C178.687469,1.951043 180.343567,1.331675 182.000000,1.000000 
M50.669655,144.002869 
	C51.113255,144.001907 51.556858,144.000961 52.789429,144.016724 
	C57.141178,144.182037 58.097595,147.613434 56.743214,150.241867 
	C55.367809,152.911118 52.154034,154.736542 49.517918,156.611801 
	C48.065220,157.645203 45.796555,157.626633 44.502064,158.769241 
	C40.892292,161.955490 37.848907,165.811340 34.109894,168.815323 
	C30.424549,171.776215 26.784801,179.533798 28.246559,183.902756 
	C28.690918,185.230865 30.162619,186.778458 31.468956,187.148666 
	C35.291092,188.231796 37.084942,190.643707 38.376953,194.250778 
	C39.046562,196.120239 41.254696,198.618027 42.924423,198.743256 
	C49.723278,199.253204 56.582703,198.955566 64.052582,198.955566 
	C63.971718,198.805725 64.553886,199.884506 64.646225,200.055618 
	C70.056412,200.055618 74.826538,199.205261 79.139168,200.247650 
	C86.256416,201.967911 92.043221,199.624603 98.104515,196.692337 
	C101.588043,195.007095 105.506927,193.213776 109.212318,193.250198 
	C113.847130,193.295746 116.685349,191.061890 119.586189,188.372864 
	C122.097176,186.045212 124.751839,183.746872 126.723701,180.992264 
	C129.811188,176.679184 134.952606,174.353287 136.643326,168.477112 
	C138.401276,162.367172 145.581192,161.099106 150.585800,165.163132 
	C152.240845,166.507095 153.604019,168.204651 155.157318,169.680893 
	C159.134399,173.460663 161.652710,179.230103 169.360001,176.826157 
	C173.497879,175.535538 178.459793,177.074753 183.026840,176.856094 
	C184.374634,176.791580 186.675842,175.186279 186.780853,174.114670 
	C187.442703,167.360825 187.877213,160.556000 187.816422,153.773132 
	C187.789337,150.751785 185.746933,147.877502 190.025330,145.800034 
	C192.566696,144.565979 194.095505,141.094116 196.654999,140.078384 
	C204.554260,136.943542 206.816116,130.957825 202.339081,123.492249 
	C201.676804,122.387917 200.927399,120.945068 201.099579,119.790215 
	C203.360977,104.621193 190.692108,97.382271 183.855896,87.063049 
	C183.691513,86.814903 183.313034,86.660515 183.002808,86.564186 
	C177.047668,84.714928 171.191879,82.057121 165.098160,81.287247 
	C159.564468,80.588135 157.673370,77.259560 156.299316,73.160416 
	C153.552887,64.967178 150.766403,56.739464 148.848465,48.331635 
	C147.327652,41.664791 144.147812,36.844292 138.126282,33.786304 
	C137.725113,33.582573 137.438095,33.123405 137.141693,32.748497 
	C130.252014,24.033800 122.824181,16.514801 110.158058,20.402166 
	C109.555115,20.587215 108.801094,20.703045 108.232468,20.510809 
	C103.090935,18.772615 100.946381,21.847181 99.239517,25.763391 
	C100.282127,27.055141 101.194397,28.185394 101.756767,29.800388 
	C101.515205,30.939449 101.273643,32.078514 100.888962,34.020287 
	C99.441055,40.811306 99.665871,47.419724 101.684097,54.190063 
	C103.572975,60.526451 105.074493,67.117279 105.595734,73.687431 
	C106.256592,82.017418 105.755524,90.439575 105.755524,99.337402 
	C86.892784,87.234436 70.351379,96.048538 66.196854,115.502556 
	C65.722099,117.725647 64.763214,119.845345 63.438896,121.768890 
	C59.378723,122.217537 57.155949,124.031586 58.642235,129.083054 
	C52.754444,129.696518 49.804134,132.878433 50.518917,139.342041 
	C50.345726,139.894943 50.172535,140.447830 49.539543,141.337555 
	C49.691216,142.223633 49.842888,143.109726 49.734344,144.105209 
	C49.824318,144.071991 49.914295,144.038773 50.669655,144.002869 
z"/>
<path fill="#FAFAFA" opacity="1.000000" stroke="none" 
	d="
M21.919128,214.034515 
	C28.893984,217.109619 35.868843,220.184723 42.921852,223.629913 
	C29.070780,224.000000 15.141559,224.000000 1.000000,224.000000 
	C1.000000,209.313126 1.000000,194.625214 1.206429,179.509277 
	C1.412859,179.081253 1.831337,179.037323 1.901726,179.446259 
	C3.721172,194.107910 9.542802,205.983871 21.919128,214.034515 
z"/>
<path fill="#FAFAFA" opacity="1.000000" stroke="none" 
	d="
M184.030777,223.149857 
	C205.157257,220.112671 220.113251,206.603500 225.222076,185.976517 
	C225.458527,185.021820 225.920456,184.122955 226.638687,183.099030 
	C227.000000,196.595093 227.000000,210.190170 227.000000,224.000000 
	C212.979843,224.000000 198.958572,224.000000 184.464996,223.787048 
	C183.992676,223.574097 184.030777,223.149857 184.030777,223.149857 
z"/>
<path fill="#FAFAFA" opacity="1.000000" stroke="none" 
	d="
M45.946335,1.840495 
	C23.163046,3.703986 7.104516,18.125547 2.036246,41.853699 
	C1.938449,42.637608 1.887004,42.800686 1.625325,42.941818 
	C1.415091,42.919868 1.000000,43.000000 1.000000,43.000000 
	C1.000000,29.070780 1.000000,15.141559 1.000000,1.000000 
	C15.686879,1.000000 30.374781,1.000000 45.524734,1.210559 
	C45.986790,1.421117 45.946335,1.840495 45.946335,1.840495 
z"/>
<path fill="#FAFAFA" opacity="1.000000" stroke="none" 
	d="
M227.000000,42.531342 
	C226.668030,42.512142 226.130661,42.061794 226.033737,41.531013 
	C222.104370,20.015411 209.021271,6.678464 187.643707,2.446167 
	C186.504471,2.220626 185.369186,1.975098 184.116028,1.369437 
	C198.259155,1.000000 212.518311,1.000000 227.000000,1.000000 
	C227.000000,14.686758 227.000000,28.374720 227.000000,42.531342 
z"/>
<path fill="#D2D2D2" opacity="1.000000" stroke="none" 
	d="
M183.565094,223.077423 
	C184.030777,223.149857 183.992676,223.574097 183.996338,223.787048 
	C137.979111,224.000000 91.958214,224.000000 45.468658,224.000000 
	C46.648922,223.669495 48.297497,223.052292 49.946815,223.050308 
	C94.330971,222.996658 138.715210,223.006149 183.565094,223.077423 
z"/>
<path fill="#BCBCBB" opacity="1.000000" stroke="none" 
	d="
M46.413025,1.916137 
	C45.946335,1.840495 45.986790,1.421117 45.993393,1.210559 
	C91.020897,1.000000 136.041794,1.000000 181.531342,1.000000 
	C180.343567,1.331675 178.687469,1.951043 177.030640,1.953025 
	C133.647049,2.004932 90.263367,1.992862 46.413025,1.916137 
z"/>
<path fill="#CECECD" opacity="1.000000" stroke="none" 
	d="
M1.000000,43.468658 
	C1.000000,43.000000 1.415091,42.919868 1.705585,43.406731 
	C1.998940,51.042141 2.012948,58.190708 2.002799,65.339241 
	C1.948992,103.238602 1.889112,141.137970 1.831337,179.037323 
	C1.831337,179.037323 1.412859,179.081253 1.206429,179.040619 
	C1.000000,133.979111 1.000000,88.958214 1.000000,43.468658 
z"/>
<path fill="#A9A9A8" opacity="1.000000" stroke="none" 
	d="
M227.000000,151.531342 
	C226.665314,150.833572 226.040115,149.667633 226.038208,148.500656 
	C225.982056,114.277771 225.987106,80.054779 225.992935,45.831799 
	C225.993027,45.341164 226.127167,44.850555 226.599365,44.179970 
	C227.000000,79.687561 227.000000,115.375122 227.000000,151.531342 
z"/>
<path fill="#060503" opacity="1.000000" stroke="none" 
	d="
M49.999352,141.000732 
	C50.172535,140.447830 50.345726,139.894943 51.148293,139.178375 
	C54.022736,140.047531 56.267807,141.080353 58.782387,142.237183 
	C60.025478,142.077042 61.851032,141.954132 63.587807,141.495209 
	C63.843731,141.427612 63.678902,139.767639 63.923904,138.601486 
	C65.340317,137.878571 66.541573,137.398575 68.053596,136.788147 
	C68.628723,136.301254 68.893082,135.944794 69.279495,135.593964 
	C69.401543,135.599564 69.455933,135.837799 69.797195,135.891602 
	C71.024040,136.634979 71.909630,137.324570 72.863289,138.067154 
	C73.247459,137.368973 73.623619,136.685379 74.399765,136.001266 
	C75.866402,136.000305 76.933052,135.999847 78.374329,135.915375 
	C81.096321,132.366150 80.782547,129.595215 76.738869,127.519417 
	C76.912865,126.821930 77.006340,126.423485 77.267471,125.981750 
	C77.435135,125.938461 77.779366,125.900505 78.169151,125.920349 
	C79.292305,125.486519 80.025673,125.032845 80.759048,124.579163 
	C80.309471,123.981018 79.859901,123.382874 79.509537,122.475510 
	C80.076042,121.443863 80.543350,120.721413 81.227478,119.850174 
	C81.546494,119.376457 81.648682,119.051537 81.730774,118.826492 
	C81.710678,118.926361 81.715439,118.722443 82.078407,118.763237 
	C83.221741,118.041908 83.872871,117.003929 84.805573,116.567001 
	C88.233597,114.961105 91.755074,113.554680 95.241386,112.073196 
	C96.189018,114.459015 97.136658,116.844833 98.109268,119.540375 
	C97.757622,120.566582 97.381004,121.283058 96.759354,122.229248 
	C96.433662,122.892433 96.353004,123.325882 96.275536,123.985794 
	C96.198380,124.514236 96.039314,124.766602 95.541191,124.861786 
	C92.790367,127.440628 87.562660,128.708237 90.310799,134.418671 
	C90.073837,134.795563 89.931992,134.913055 89.609604,135.161072 
	C89.215065,135.512024 89.082588,135.773712 88.977280,136.387772 
	C88.095238,137.237076 87.267532,137.775269 86.332245,138.129517 
	C86.043877,137.947021 85.863083,137.948471 85.682297,137.949921 
	C85.898300,138.109161 86.114304,138.268387 86.524277,138.558075 
	C86.718246,138.688522 86.605827,139.142334 86.159515,139.098175 
	C80.884415,138.427536 80.823616,141.605331 80.998703,144.986221 
	C81.002853,145.004425 80.967033,144.993881 80.669098,145.030975 
	C79.914223,145.638138 79.457283,146.208206 78.842209,146.998383 
	C78.518234,147.290146 78.352386,147.361801 78.019478,147.126953 
	C77.235031,146.546661 76.617638,146.272888 75.956284,145.628052 
	C75.237724,143.805557 74.563141,142.354095 73.888550,140.902649 
	C73.203606,141.176208 72.518669,141.449768 71.833725,141.723328 
	C72.555916,143.482483 73.278114,145.241653 74.005562,147.431122 
	C74.138481,148.711395 74.266136,149.561325 74.314957,150.297791 
	C74.236122,150.184296 74.342659,150.439301 74.016640,150.301605 
	C73.461418,150.107986 73.232216,150.052032 72.948822,149.865646 
	C72.813637,149.688293 72.732643,149.641357 72.651649,149.594437 
	C72.766457,149.730637 72.881256,149.866852 73.022888,150.326935 
	C73.075264,150.865967 73.100822,151.081116 72.979584,151.568634 
	C71.405540,152.632172 69.978287,153.423355 68.176720,154.067688 
	C66.062233,153.620575 64.322067,153.320328 62.418972,152.991974 
	C63.141689,154.771072 63.570400,155.826416 63.645966,157.021759 
	C57.389618,159.154282 52.451996,162.593536 48.164955,166.847687 
	C47.058025,165.427490 46.066902,164.340683 45.075779,163.253876 
	C44.594776,163.706909 44.113777,164.159927 43.632774,164.612961 
	C44.805229,165.808701 45.977684,167.004456 46.970959,168.494278 
	C44.530361,169.860703 42.268940,170.933029 39.629532,171.947662 
	C34.732750,172.734436 32.611458,175.192780 33.850880,179.913223 
	C35.848995,187.523224 39.495762,190.462585 45.730247,189.324890 
	C46.110397,189.261978 46.321068,189.299240 46.948624,189.601868 
	C48.622246,189.836594 49.867619,189.870148 51.504364,189.915802 
	C71.013763,197.370773 89.101791,193.647049 105.744156,183.362137 
	C114.206284,178.132568 121.166496,170.472717 129.148636,164.054779 
	C133.690094,164.650665 137.250854,158.985809 136.026917,153.576935 
	C136.770950,151.846313 137.448364,150.445694 138.399292,148.833969 
	C141.504471,140.454788 144.336136,132.286713 147.353485,124.138763 
	C147.539200,124.158890 147.908447,124.213409 147.981598,124.575287 
	C149.115387,128.413391 150.343964,131.848938 151.198212,135.375153 
	C152.559433,140.994034 153.671417,146.673279 154.861053,152.514374 
	C154.833313,152.701767 155.072342,152.995697 155.061768,153.245056 
	C155.051178,153.494415 155.278671,153.938721 155.319366,154.299469 
	C157.469360,162.570404 162.451950,168.102585 169.885452,171.185226 
	C174.014450,172.897507 176.527649,170.770706 176.785629,165.678329 
	C176.298172,159.931641 175.480743,154.569870 175.507355,149.212326 
	C175.534439,143.755310 176.867401,138.296112 176.794983,132.848938 
	C176.594620,117.774605 169.570724,107.783836 157.134369,103.645111 
	C158.093216,102.844177 158.988068,102.347023 160.283386,101.927795 
	C167.163055,102.310776 171.251770,106.150040 174.074860,111.479774 
	C175.774796,114.689102 176.861221,118.217537 178.351105,121.545387 
	C180.538971,126.432281 183.154099,130.969162 188.443832,133.230011 
	C191.708237,134.625214 194.190521,134.207611 195.559875,131.021942 
	C194.521988,129.849030 193.661041,128.876068 192.759918,127.574455 
	C191.479462,125.375595 190.239166,123.505394 189.034241,121.515915 
	C189.069580,121.396629 188.921265,121.196831 188.961609,120.745758 
	C187.603622,114.540131 186.205307,108.785591 184.734177,102.704025 
	C181.929611,99.572670 179.572540,96.212608 176.394653,94.069984 
	C167.464066,88.048706 158.197815,89.668777 149.000854,93.538712 
	C148.024170,77.449585 145.519363,62.138340 137.823456,48.219978 
	C132.245438,38.131927 124.999413,29.664946 112.843750,26.402187 
	C109.077332,27.209515 105.591995,28.262581 102.106659,29.315647 
	C101.194397,28.185394 100.282127,27.055141 99.239517,25.763391 
	C100.946381,21.847181 103.090935,18.772615 108.232468,20.510809 
	C108.801094,20.703045 109.555115,20.587215 110.158058,20.402166 
	C122.824181,16.514801 130.252014,24.033800 137.141693,32.748497 
	C137.438095,33.123405 137.725113,33.582573 138.126282,33.786304 
	C144.147812,36.844292 147.327652,41.664791 148.848465,48.331635 
	C150.766403,56.739464 153.552887,64.967178 156.299316,73.160416 
	C157.673370,77.259560 159.564468,80.588135 165.098160,81.287247 
	C171.191879,82.057121 177.047668,84.714928 183.002808,86.564186 
	C183.313034,86.660515 183.691513,86.814903 183.855896,87.063049 
	C190.692108,97.382271 203.360977,104.621193 201.099579,119.790215 
	C200.927399,120.945068 201.676804,122.387917 202.339081,123.492249 
	C206.816116,130.957825 204.554260,136.943542 196.654999,140.078384 
	C194.095505,141.094116 192.566696,144.565979 190.025330,145.800034 
	C185.746933,147.877502 187.789337,150.751785 187.816422,153.773132 
	C187.877213,160.556000 187.442703,167.360825 186.780853,174.114670 
	C186.675842,175.186279 184.374634,176.791580 183.026840,176.856094 
	C178.459793,177.074753 173.497879,175.535538 169.360001,176.826157 
	C161.652710,179.230103 159.134399,173.460663 155.157318,169.680893 
	C153.604019,168.204651 152.240845,166.507095 150.585800,165.163132 
	C145.581192,161.099106 138.401276,162.367172 136.643326,168.477112 
	C134.952606,174.353287 129.811188,176.679184 126.723701,180.992264 
	C124.751839,183.746872 122.097176,186.045212 119.586189,188.372864 
	C116.685349,191.061890 113.847130,193.295746 109.212318,193.250198 
	C105.506927,193.213776 101.588043,195.007095 98.104515,196.692337 
	C92.043221,199.624603 86.256416,201.967911 79.139168,200.247650 
	C74.826538,199.205261 70.056412,200.055618 64.646225,200.055618 
	C64.553886,199.884506 63.971718,198.805725 64.052582,198.955566 
	C56.582703,198.955566 49.723278,199.253204 42.924423,198.743256 
	C41.254696,198.618027 39.046562,196.120239 38.376953,194.250778 
	C37.084942,190.643707 35.291092,188.231796 31.468956,187.148666 
	C30.162619,186.778458 28.690918,185.230865 28.246559,183.902756 
	C26.784801,179.533798 30.424549,171.776215 34.109894,168.815323 
	C37.848907,165.811340 40.892292,161.955490 44.502064,158.769241 
	C45.796555,157.626633 48.065220,157.645203 49.517918,156.611801 
	C52.154034,154.736542 55.367809,152.911118 56.743214,150.241867 
	C58.097595,147.613434 57.141178,144.182037 52.266392,143.734634 
	C51.162022,142.635269 50.580688,141.818008 49.999352,141.000732 
M87.504753,120.914070 
	C87.807289,119.714691 88.109825,118.515305 88.412361,117.315926 
	C87.749748,117.291885 87.087143,117.267838 86.424538,117.243797 
	C86.605392,118.430656 86.786240,119.617516 87.504753,120.914070 
M71.938370,196.762436 
	C71.642784,196.208313 71.347198,195.654190 71.051613,195.100082 
	C70.561852,195.368729 70.072090,195.637375 69.582329,195.906021 
	C70.155853,196.243988 70.729385,196.581955 71.938370,196.762436 
M121.411697,175.194138 
	C121.792618,175.198502 122.173546,175.202866 122.554466,175.207245 
	C122.556129,175.049194 122.568504,174.753784 122.557907,174.752945 
	C122.178886,174.723389 121.797714,174.721390 121.411697,175.194138 
M69.194153,146.588318 
	C69.198540,146.207397 69.202927,145.826462 69.207314,145.445541 
	C69.049263,145.443863 68.753838,145.431488 68.753014,145.442062 
	C68.723457,145.821091 68.721428,146.202286 69.194153,146.588318 
M175.451859,172.712646 
	C175.714966,172.988785 175.978073,173.264908 176.241180,173.541046 
	C176.355530,173.432037 176.469864,173.323029 176.584213,173.214020 
	C176.320770,172.937836 176.057343,172.661667 175.451859,172.712646 
M104.548157,187.287354 
	C104.285049,187.011261 104.021935,186.735168 103.758820,186.459076 
	C103.644493,186.568069 103.530167,186.677078 103.415840,186.786087 
	C103.679276,187.062210 103.942703,187.338333 104.548157,187.287354 
M184.805847,133.411728 
	C184.801483,133.792648 184.797119,134.173553 184.792740,134.554459 
	C184.950790,134.556137 185.246170,134.568512 185.247009,134.557938 
	C185.276550,134.178940 185.278564,133.797775 184.805847,133.411728 
M116.411613,182.194153 
	C116.792564,182.198532 117.173523,182.202911 117.554466,182.207291 
	C117.556137,182.049225 117.568520,181.753784 117.557938,181.752975 
	C117.178879,181.723419 116.797684,181.721390 116.411613,182.194153 
M189.423004,106.484497 
	C189.423004,106.484497 189.521927,106.428017 189.423004,106.484497 
M162.422867,168.484482 
	C162.422867,168.484482 162.521851,168.427963 162.422867,168.484482 
z"/>
<path fill="#FAEEB2" opacity="1.000000" stroke="none" 
	d="
M113.124840,26.647924 
	C124.999413,29.664946 132.245438,38.131927 137.823456,48.219978 
	C145.519363,62.138340 148.024170,77.449585 148.967560,93.994003 
	C149.130310,105.428177 147.840134,103.678017 157.070374,103.948898 
	C169.570724,107.783836 176.594620,117.774605 176.794983,132.848938 
	C176.867401,138.296112 175.534439,143.755310 175.507355,149.212326 
	C175.480743,154.569870 176.298172,159.931641 176.398331,165.699219 
	C170.163330,167.816437 166.986679,167.027283 163.959396,161.848557 
	C161.431473,157.524078 159.790741,152.680954 157.764343,147.667847 
	C157.475693,145.814331 157.174240,144.361572 156.884796,142.906448 
	C155.382172,135.352005 155.344513,127.359291 150.177963,120.537964 
	C148.482605,118.114784 147.133194,115.777222 145.266861,113.974968 
	C138.106400,107.060349 126.416695,105.697800 122.758789,113.186478 
	C121.665398,114.574539 120.849716,115.803818 120.023743,116.989594 
	C120.013458,116.946083 119.924301,116.952950 119.631866,116.978203 
	C118.954681,116.930916 118.569939,116.858368 118.100632,116.440445 
	C115.028145,101.674469 93.870522,96.922356 83.643295,108.938461 
	C79.652618,113.627151 77.135399,119.569946 73.659393,125.118637 
	C72.572899,126.325394 71.789124,127.367134 70.972786,128.382690 
	C65.612221,135.051422 62.068577,136.289352 55.664009,133.492065 
	C59.680714,130.281021 63.476902,127.338135 64.028801,122.012985 
	C64.763214,119.845345 65.722099,117.725647 66.196854,115.502556 
	C70.351379,96.048538 86.892784,87.234436 105.755524,99.337402 
	C105.755524,90.439575 106.256592,82.017418 105.595734,73.687431 
	C105.074493,67.117279 103.572975,60.526451 101.684097,54.190063 
	C99.665871,47.419724 99.441055,40.811306 101.376526,33.613548 
	C106.672920,32.832230 111.403893,32.323994 113.124840,26.647924 
z"/>
<path fill="#020201" opacity="1.000000" stroke="none" 
	d="
M1.901726,179.446259 
	C1.889112,141.137970 1.948992,103.238602 2.002799,65.339241 
	C2.012948,58.190708 1.998940,51.042141 1.915819,43.428680 
	C1.887004,42.800686 1.938449,42.637608 2.090407,42.238541 
	C5.024114,42.002552 7.857306,42.002552 12.135759,42.002552 
	C11.582538,46.131218 11.147942,50.536221 10.355482,54.875874 
	C9.836497,57.717930 8.853805,60.482712 7.971481,63.247860 
	C7.535394,64.614532 6.767412,65.874168 6.315104,67.237152 
	C5.935620,68.380692 5.189007,70.281509 5.643144,70.688461 
	C11.000413,75.489082 9.298325,82.000328 9.932880,87.862045 
	C10.586883,93.903412 10.703204,100.002991 11.069516,106.331741 
	C9.331495,106.331741 8.086198,106.331741 6.339189,106.331741 
	C6.223609,107.949760 6.112610,109.503654 5.974436,111.437973 
	C7.725736,111.539719 9.104732,111.619835 10.631038,111.708519 
	C10.748851,112.347473 10.986578,112.989098 10.965969,113.622307 
	C10.664245,122.892952 10.045671,132.163284 10.071990,141.432068 
	C10.104450,152.864273 10.907942,164.294907 10.911579,175.726364 
	C10.913841,182.836594 13.459551,188.944534 16.984451,194.741516 
	C18.212101,196.760498 20.474489,198.162323 22.305796,199.799591 
	C25.472015,202.630310 26.009232,205.784317 23.864008,209.519913 
	C23.139786,210.781021 22.928232,212.336548 22.200752,213.896027 
	C9.542802,205.983871 3.721172,194.107910 1.901726,179.446259 
z"/>
<path fill="#070604" opacity="1.000000" stroke="none" 
	d="
M63.733849,121.890938 
	C63.476902,127.338135 59.680714,130.281021 55.457672,133.793732 
	C55.415962,140.828842 60.178516,138.639969 63.708740,138.844406 
	C63.678902,139.767639 63.843731,141.427612 63.587807,141.495209 
	C61.851032,141.954132 60.025478,142.077042 58.782387,142.237183 
	C56.267807,141.080353 54.022736,140.047531 51.389206,139.006439 
	C49.804134,132.878433 52.754444,129.696518 58.642235,129.083054 
	C57.155949,124.031586 59.378723,122.217537 63.733849,121.890938 
z"/>
<path fill="#D4A617" opacity="1.000000" stroke="none" 
	d="
M112.843750,26.402187 
	C111.403893,32.323994 106.672920,32.832230 101.448090,33.212189 
	C101.273643,32.078514 101.515205,30.939449 101.931717,29.558018 
	C105.591995,28.262581 109.077332,27.209515 112.843750,26.402187 
z"/>
<path fill="#070604" opacity="1.000000" stroke="none" 
	d="
M49.769447,141.169144 
	C50.580688,141.818008 51.162022,142.635269 51.871906,143.726273 
	C51.556858,144.000961 51.113255,144.001907 50.334827,144.001434 
	C50.000000,144.000000 49.994560,143.995804 49.994560,143.995804 
	C49.842888,143.109726 49.691216,142.223633 49.769447,141.169144 
z"/>
<path fill="#070604" opacity="1.000000" stroke="none" 
	d="
M50.002136,144.002777 
	C49.914295,144.038773 49.824318,144.071991 49.864452,144.050507 
	C49.994560,143.995804 50.000000,144.000000 50.002136,144.002777 
z"/>
<path fill="#FBCE09" opacity="1.000000" stroke="none" 
	d="
M138.125793,149.045074 
	C137.448364,150.445694 136.770950,151.846313 135.768158,153.791595 
	C133.230408,157.527985 131.018036,160.719742 128.805664,163.911484 
	C121.166496,170.472717 114.206284,178.132568 105.744156,183.362137 
	C89.101791,193.647049 71.013763,197.370773 51.221603,189.720184 
	C49.205112,189.475220 47.862747,189.437958 46.520382,189.400696 
	C46.321068,189.299240 46.110397,189.261978 45.481571,189.042358 
	C44.976788,185.369247 44.878803,181.942673 44.974686,178.200531 
	C45.434361,177.697998 45.705338,177.340714 45.965240,177.348587 
	C58.178520,177.718674 69.761894,173.639206 79.829094,168.160416 
	C89.577026,162.855377 99.204308,156.462982 105.904640,145.977463 
	C111.848671,136.675507 116.274452,127.122688 119.924301,116.952950 
	C119.924301,116.952950 120.013458,116.946083 120.298225,117.191589 
	C123.131111,118.767815 126.651176,119.450432 128.049652,121.547722 
	C132.709793,128.536530 138.478714,135.320786 136.656174,144.864883 
	C136.416687,146.119003 137.600937,147.645004 138.125793,149.045074 
z"/>
<path fill="#FBDD3D" opacity="1.000000" stroke="none" 
	d="
M119.631866,116.978203 
	C116.274452,127.122688 111.848671,136.675507 105.904640,145.977463 
	C99.204308,156.462982 89.577026,162.855377 79.829094,168.160416 
	C69.761894,173.639206 58.178520,177.718674 45.965240,177.348587 
	C45.705338,177.340714 45.434361,177.697998 44.693668,177.992447 
	C42.815033,176.068420 41.411278,174.036896 40.007523,172.005371 
	C42.268940,170.933029 44.530361,169.860703 46.945217,168.465240 
	C47.098652,168.142120 47.104702,168.218658 47.371696,168.128601 
	C47.849194,167.739594 48.059696,167.440628 48.249863,167.153793 
	C48.229530,167.165924 48.280758,167.181061 48.280758,167.181061 
	C52.451996,162.593536 57.389618,159.154282 63.978424,156.985901 
	C65.959702,155.944855 67.255371,155.079697 68.551041,154.214539 
	C69.978287,153.423355 71.405540,152.632172 73.223122,151.487457 
	C73.856522,150.902374 74.099594,150.670837 74.342667,150.439301 
	C74.342659,150.439301 74.236122,150.184296 74.599030,150.191650 
	C76.036797,149.277161 77.111664,148.355316 78.186523,147.433472 
	C78.352386,147.361801 78.518234,147.290146 79.114090,146.933502 
	C80.018417,146.096985 80.492722,145.545425 80.967033,144.993881 
	C80.967033,144.993881 81.002853,145.004425 81.357132,144.939697 
	C83.342873,142.964081 84.974350,141.053207 86.605820,139.142334 
	C86.605827,139.142334 86.718246,138.688522 86.531754,138.510437 
	C86.345253,138.332336 86.439835,138.313477 86.439835,138.313477 
	C87.267532,137.775269 88.095238,137.237076 89.181503,136.275238 
	C89.724045,135.649261 89.840744,135.375580 89.790154,135.030548 
	C89.931992,134.913055 90.073837,134.795563 90.569168,134.220520 
	C92.548950,130.831772 94.175247,127.900558 95.801544,124.969345 
	C96.039314,124.766602 96.198380,124.514236 96.540298,123.768707 
	C96.869385,122.883286 96.936890,122.441406 97.004395,121.999527 
	C97.381004,121.283058 97.757622,120.566582 98.302345,119.449448 
	C98.470451,119.048782 98.860222,118.874779 99.250534,119.048996 
	C105.098915,119.154655 110.560883,119.170891 116.010536,118.919678 
	C116.766602,118.884827 117.461807,117.529739 118.185188,116.785828 
	C118.569939,116.858368 118.954681,116.930916 119.631866,116.978203 
z"/>
<path fill="#F0B907" opacity="1.000000" stroke="none" 
	d="
M138.399292,148.833969 
	C137.600937,147.645004 136.416687,146.119003 136.656174,144.864883 
	C138.478714,135.320786 132.709793,128.536530 128.049652,121.547722 
	C126.651176,119.450432 123.131111,118.767815 120.308517,117.235100 
	C120.849716,115.803818 121.665398,114.574539 123.155106,113.180725 
	C126.513603,112.494926 129.228500,111.413399 131.876846,111.557228 
	C139.885513,111.992188 144.094223,117.457054 147.167786,124.118637 
	C144.336136,132.286713 141.504471,140.454788 138.399292,148.833969 
z"/>
<path fill="#D6A40C" opacity="1.000000" stroke="none" 
	d="
M188.921265,121.196831 
	C188.921265,121.196831 189.069580,121.396629 188.980011,121.918198 
	C190.193665,124.260880 191.496887,126.081993 192.800110,127.903107 
	C193.661041,128.876068 194.521988,129.849030 195.559875,131.021942 
	C194.190521,134.207611 191.708237,134.625214 188.443832,133.230011 
	C183.154099,130.969162 180.538971,126.432281 178.351105,121.545387 
	C176.861221,118.217537 175.774796,114.689102 174.074860,111.479774 
	C171.251770,106.150040 167.163055,102.310776 160.188477,101.647736 
	C159.941696,100.803650 160.060791,100.101440 160.458038,99.863380 
	C168.277634,95.177391 173.863388,96.007858 182.095886,103.232819 
	C182.346390,103.783417 182.601135,103.983398 182.926910,104.071167 
	C182.905762,104.076355 182.907242,104.119858 182.938934,104.492859 
	C184.105225,108.713104 185.137192,112.595047 186.421219,116.391739 
	C186.992844,118.081955 188.072296,119.600418 188.921265,121.196831 
z"/>
<path fill="#F6CD10" opacity="1.000000" stroke="none" 
	d="
M118.100632,116.440445 
	C117.461807,117.529739 116.766602,118.884827 116.010536,118.919678 
	C110.560883,119.170891 105.098915,119.154655 99.258362,118.649010 
	C99.052834,116.927612 99.544525,115.721466 99.342926,114.645172 
	C98.887253,112.212524 98.740616,108.496605 97.268318,107.784851 
	C95.357323,106.861015 91.586662,107.523193 89.855988,108.977608 
	C86.665741,111.658607 84.378784,115.414467 81.715439,118.722443 
	C81.715439,118.722443 81.710678,118.926361 81.480209,118.943886 
	C81.170052,119.307266 81.090355,119.653114 81.010651,119.998970 
	C80.543350,120.721413 80.076042,121.443863 79.318176,122.702423 
	C78.611534,124.125870 78.195450,125.013191 77.779366,125.900505 
	C77.779366,125.900505 77.435135,125.938461 76.995667,126.067154 
	C75.686470,125.777740 74.816757,125.359634 73.947044,124.941521 
	C77.135399,119.569946 79.652618,113.627151 83.643295,108.938461 
	C93.870522,96.922356 115.028145,101.674469 118.100632,116.440445 
z"/>
<path fill="#DCC566" opacity="1.000000" stroke="none" 
	d="
M182.007935,102.999596 
	C173.863388,96.007858 168.277634,95.177391 160.458038,99.863380 
	C160.060791,100.101440 159.941696,100.803650 159.787994,101.569809 
	C158.988068,102.347023 158.093216,102.844177 157.134369,103.645111 
	C147.840134,103.678017 149.130310,105.428177 149.032608,94.428741 
	C158.197815,89.668777 167.464066,88.048706 176.394653,94.069984 
	C179.572540,96.212608 181.929611,99.572670 184.492310,102.830139 
	C183.851242,103.562149 183.379242,103.841003 182.907242,104.119858 
	C182.907242,104.119858 182.905762,104.076355 182.836502,103.841469 
	C182.582840,103.318314 182.329742,103.115982 182.007935,102.999596 
z"/>
<path fill="#4C340D" opacity="1.000000" stroke="none" 
	d="
M39.629536,171.947662 
	C41.411278,174.036896 42.815033,176.068420 44.499802,178.308014 
	C44.878803,181.942673 44.976788,185.369247 45.323448,189.078354 
	C39.495762,190.462585 35.848995,187.523224 33.850880,179.913223 
	C32.611458,175.192780 34.732750,172.734436 39.629536,171.947662 
z"/>
<path fill="#EECB16" opacity="1.000000" stroke="none" 
	d="
M157.757095,148.067520 
	C159.790741,152.680954 161.431473,157.524078 163.959396,161.848557 
	C166.986679,167.027283 170.163330,167.816437 176.438766,166.085999 
	C176.527649,170.770706 174.014450,172.897507 169.885452,171.185226 
	C162.451950,168.102585 157.469360,162.570404 155.440674,154.188599 
	C155.609955,153.357452 155.460312,153.117020 155.072342,152.995697 
	C155.072342,152.995697 154.833313,152.701767 154.891602,152.152634 
	C155.885620,150.424835 156.821350,149.246170 157.757095,148.067520 
z"/>
<path fill="#F0CB1A" opacity="1.000000" stroke="none" 
	d="
M157.764343,147.667847 
	C156.821350,149.246170 155.885620,150.424835 154.919342,151.965240 
	C153.671417,146.673279 152.559433,140.994034 151.198212,135.375153 
	C150.343964,131.848938 149.115387,128.413391 148.035675,124.216995 
	C148.773239,122.621033 149.529861,121.745239 150.286499,120.869438 
	C155.344513,127.359291 155.382172,135.352005 156.884796,142.906448 
	C157.174240,144.361572 157.475693,145.814331 157.764343,147.667847 
z"/>
<path fill="#F9D117" opacity="1.000000" stroke="none" 
	d="
M150.177963,120.537964 
	C149.529861,121.745239 148.773239,122.621033 147.962524,123.855118 
	C147.908447,124.213409 147.539200,124.158890 147.353500,124.138763 
	C144.094223,117.457054 139.885513,111.992188 131.876846,111.557228 
	C129.228500,111.413399 126.513603,112.494926 123.432823,113.021950 
	C126.416695,105.697800 138.106400,107.060349 145.266861,113.974968 
	C147.133194,115.777222 148.482605,118.114784 150.177963,120.537964 
z"/>
<path fill="#ECCA1E" opacity="1.000000" stroke="none" 
	d="
M73.659393,125.118637 
	C74.816757,125.359634 75.686470,125.777740 76.828003,126.110443 
	C77.006340,126.423485 76.912865,126.821930 76.432663,127.598022 
	C75.463860,129.035217 74.881798,130.094772 74.063644,131.303986 
	C73.527306,131.918152 73.227051,132.382660 72.623520,132.973984 
	C71.365463,134.013123 70.410698,134.925461 69.455933,135.837799 
	C69.455933,135.837799 69.401543,135.599564 69.074738,135.429489 
	C68.412903,135.812469 68.077866,136.365524 67.742828,136.918579 
	C66.541573,137.398575 65.340317,137.878571 63.923901,138.601486 
	C60.178516,138.639969 55.415962,140.828842 55.294235,134.103821 
	C62.068577,136.289352 65.612221,135.051422 70.972786,128.382690 
	C71.789124,127.367134 72.572899,126.325394 73.659393,125.118637 
z"/>
<path fill="#070604" opacity="1.000000" stroke="none" 
	d="
M82.078407,118.763237 
	C84.378784,115.414467 86.665741,111.658607 89.855988,108.977608 
	C91.586662,107.523193 95.357323,106.861015 97.268318,107.784851 
	C98.740616,108.496605 98.887253,112.212524 99.342926,114.645172 
	C99.544525,115.721466 99.052834,116.927612 98.868042,118.474792 
	C98.860222,118.874779 98.470451,119.048782 98.277374,119.139709 
	C97.136658,116.844833 96.189018,114.459015 95.241386,112.073196 
	C91.755074,113.554680 88.233597,114.961105 84.805573,116.567001 
	C83.872871,117.003929 83.221741,118.041908 82.078407,118.763237 
z"/>
<path fill="#E6C85F" opacity="1.000000" stroke="none" 
	d="
M182.938934,104.492859 
	C183.379242,103.841003 183.851242,103.562149 184.565125,103.157173 
	C186.205307,108.785591 187.603622,114.540131 188.961609,120.745758 
	C188.072296,119.600418 186.992844,118.081955 186.421219,116.391739 
	C185.137192,112.595047 184.105225,108.713104 182.938934,104.492859 
z"/>
<path fill="#120E0B" opacity="1.000000" stroke="none" 
	d="
M129.148636,164.054779 
	C131.018036,160.719742 133.230408,157.527985 135.701538,154.121597 
	C137.250854,158.985809 133.690094,164.650665 129.148636,164.054779 
z"/>
<path fill="#070604" opacity="1.000000" stroke="none" 
	d="
M74.299728,131.154327 
	C74.881798,130.094772 75.463860,129.035217 76.352127,127.897064 
	C80.782547,129.595215 81.096321,132.366150 78.360886,135.517609 
	C76.748451,133.854019 75.524086,132.504166 74.299728,131.154327 
z"/>
<path fill="#070604" opacity="1.000000" stroke="none" 
	d="
M95.541199,124.861786 
	C94.175247,127.900558 92.548950,130.831772 90.664291,133.961136 
	C87.562660,128.708237 92.790367,127.440628 95.541199,124.861786 
z"/>
<path fill="#070604" opacity="1.000000" stroke="none" 
	d="
M86.159508,139.098175 
	C84.974350,141.053207 83.342873,142.964081 81.352982,144.921478 
	C80.823616,141.605331 80.884415,138.427536 86.159508,139.098175 
z"/>
<path fill="#050503" opacity="1.000000" stroke="none" 
	d="
M74.000305,147.000809 
	C73.278114,145.241653 72.555916,143.482483 71.833725,141.723328 
	C72.518669,141.449768 73.203606,141.176208 73.888550,140.902649 
	C74.563141,142.354095 75.237724,143.805557 75.698212,145.737152 
	C74.989502,146.478455 74.494904,146.739624 74.000305,147.000809 
z"/>
<path fill="#050503" opacity="1.000000" stroke="none" 
	d="
M74.063644,131.303986 
	C75.524086,132.504166 76.748451,133.854019 77.986252,135.601624 
	C76.933052,135.999847 75.866402,136.000305 74.136475,135.774536 
	C73.291054,134.647934 73.108925,133.747559 72.926796,132.847183 
	C73.227051,132.382660 73.527306,131.918152 74.063644,131.303986 
z"/>
<path fill="#070604" opacity="1.000000" stroke="none" 
	d="
M47.124393,168.171158 
	C45.977684,167.004456 44.805229,165.808701 43.632774,164.612961 
	C44.113777,164.159927 44.594776,163.706909 45.075779,163.253876 
	C46.066902,164.340683 47.058025,165.427490 48.164955,166.847687 
	C48.280758,167.181061 48.229530,167.165924 47.974144,167.230774 
	C47.514076,167.603302 47.309391,167.910980 47.104706,168.218658 
	C47.104702,168.218658 47.098652,168.142120 47.124393,168.171158 
z"/>
<path fill="#070604" opacity="1.000000" stroke="none" 
	d="
M68.176720,154.067688 
	C67.255371,155.079697 65.959702,155.944855 64.331573,156.845886 
	C63.570400,155.826416 63.141689,154.771072 62.418972,152.991974 
	C64.322067,153.320328 66.062233,153.620575 68.176720,154.067688 
z"/>
<path fill="#070604" opacity="1.000000" stroke="none" 
	d="
M74.005562,147.431122 
	C74.494904,146.739624 74.989502,146.478455 75.742172,146.108185 
	C76.617638,146.272888 77.235031,146.546661 78.019470,147.126953 
	C77.111664,148.355316 76.036797,149.277161 74.677864,150.305145 
	C74.266136,149.561325 74.138481,148.711395 74.005562,147.431122 
z"/>
<path fill="#E6C85F" opacity="1.000000" stroke="none" 
	d="
M192.759933,127.574448 
	C191.496887,126.081993 190.193665,124.260880 188.944672,122.037491 
	C190.239166,123.505394 191.479462,125.375595 192.759933,127.574448 
z"/>
<path fill="#070604" opacity="1.000000" stroke="none" 
	d="
M87.235916,120.859222 
	C86.786240,119.617516 86.605392,118.430656 86.424538,117.243797 
	C87.087143,117.267838 87.749748,117.291885 88.412361,117.315926 
	C88.109825,118.515305 87.807289,119.714691 87.235916,120.859222 
z"/>
<path fill="#070604" opacity="1.000000" stroke="none" 
	d="
M72.623520,132.973984 
	C73.108925,133.747559 73.291054,134.647934 73.736481,135.775040 
	C73.623619,136.685379 73.247459,137.368973 72.863289,138.067154 
	C71.909630,137.324570 71.024040,136.634979 69.797195,135.891602 
	C70.410698,134.925461 71.365463,134.013123 72.623520,132.973984 
z"/>
<path fill="#050503" opacity="1.000000" stroke="none" 
	d="
M71.620644,196.841187 
	C70.729385,196.581955 70.155853,196.243988 69.582336,195.906036 
	C70.072090,195.637375 70.561852,195.368729 71.051605,195.100067 
	C71.347198,195.654190 71.642784,196.208313 71.620644,196.841187 
z"/>
<path fill="#070604" opacity="1.000000" stroke="none" 
	d="
M78.169151,125.920349 
	C78.195450,125.013191 78.611534,124.125870 79.218979,123.011635 
	C79.859901,123.382874 80.309471,123.981018 80.759048,124.579163 
	C80.025673,125.032845 79.292305,125.486519 78.169151,125.920349 
z"/>
<path fill="#050503" opacity="1.000000" stroke="none" 
	d="
M121.414276,174.954834 
	C121.797714,174.721390 122.178886,174.723389 122.557907,174.752945 
	C122.568504,174.753784 122.556129,175.049194 122.554466,175.207245 
	C122.173546,175.202866 121.792618,175.198502 121.414276,174.954834 
z"/>
<path fill="#050503" opacity="1.000000" stroke="none" 
	d="
M68.954849,146.585739 
	C68.721428,146.202286 68.723457,145.821091 68.753014,145.442062 
	C68.753838,145.431488 69.049263,145.443863 69.207314,145.445541 
	C69.202927,145.826462 69.198540,146.207397 68.954849,146.585739 
z"/>
<path fill="#050503" opacity="1.000000" stroke="none" 
	d="
M175.622879,172.549072 
	C176.057343,172.661667 176.320770,172.937836 176.584213,173.214020 
	C176.469864,173.323029 176.355530,173.432037 176.241180,173.541046 
	C175.978073,173.264908 175.714966,172.988785 175.622879,172.549072 
z"/>
<path fill="#4C340D" opacity="1.000000" stroke="none" 
	d="
M46.948624,189.601868 
	C47.862747,189.437958 49.205112,189.475220 50.830238,189.708099 
	C49.867619,189.870148 48.622246,189.836594 46.948624,189.601868 
z"/>
<path fill="#050503" opacity="1.000000" stroke="none" 
	d="
M104.377151,187.450897 
	C103.942703,187.338333 103.679276,187.062210 103.415833,186.786087 
	C103.530167,186.677078 103.644493,186.568069 103.758820,186.459076 
	C104.021935,186.735168 104.285049,187.011261 104.377151,187.450897 
z"/>
<path fill="#050503" opacity="1.000000" stroke="none" 
	d="
M185.045135,133.414337 
	C185.278564,133.797775 185.276550,134.178940 185.247009,134.557938 
	C185.246170,134.568512 184.950790,134.556137 184.792740,134.554474 
	C184.797119,134.173553 184.801483,133.792648 185.045135,133.414337 
z"/>
<path fill="#050503" opacity="1.000000" stroke="none" 
	d="
M116.414200,181.954834 
	C116.797684,181.721390 117.178879,181.723419 117.557938,181.752975 
	C117.568520,181.753784 117.556137,182.049225 117.554474,182.207291 
	C117.173523,182.202911 116.792564,182.198532 116.414200,181.954834 
z"/>
<path fill="#070604" opacity="1.000000" stroke="none" 
	d="
M80.669098,145.030975 
	C80.492722,145.545425 80.018417,146.096985 79.272224,146.713409 
	C79.457283,146.208206 79.914223,145.638138 80.669098,145.030975 
z"/>
<path fill="#070604" opacity="1.000000" stroke="none" 
	d="
M68.053604,136.788147 
	C68.077866,136.365524 68.412903,135.812469 68.952690,135.423889 
	C68.893082,135.944794 68.628723,136.301254 68.053604,136.788147 
z"/>
<path fill="#070604" opacity="1.000000" stroke="none" 
	d="
M96.759354,122.229248 
	C96.936890,122.441406 96.869385,122.883286 96.537125,123.542252 
	C96.353004,123.325882 96.433662,122.892433 96.759354,122.229248 
z"/>
<path fill="#070604" opacity="1.000000" stroke="none" 
	d="
M81.227478,119.850174 
	C81.090355,119.653114 81.170052,119.307266 81.500313,118.844009 
	C81.648682,119.051537 81.546494,119.376457 81.227478,119.850174 
z"/>
<path fill="#050503" opacity="1.000000" stroke="none" 
	d="
M189.472473,106.456253 
	C189.521927,106.428017 189.423004,106.484497 189.472473,106.456253 
z"/>
<path fill="#050503" opacity="1.000000" stroke="none" 
	d="
M162.472351,168.456223 
	C162.521851,168.427963 162.422867,168.484482 162.472351,168.456223 
z"/>
<path fill="#F0CB1A" opacity="1.000000" stroke="none" 
	d="
M155.061768,153.245056 
	C155.460312,153.117020 155.609955,153.357452 155.399979,153.827850 
	C155.278671,153.938721 155.051178,153.494415 155.061768,153.245056 
z"/>
<path fill="#070604" opacity="1.000000" stroke="none" 
	d="
M89.609604,135.161072 
	C89.840744,135.375580 89.724045,135.649261 89.235840,135.964142 
	C89.082588,135.773712 89.215065,135.512024 89.609604,135.161072 
z"/>
<path fill="#070604" opacity="1.000000" stroke="none" 
	d="
M74.016647,150.301605 
	C74.099594,150.670837 73.856522,150.902374 73.369911,151.215088 
	C73.100822,151.081116 73.075264,150.865967 73.024857,150.325409 
	C73.000000,150.000000 73.003006,149.996063 73.003006,149.996063 
	C73.232216,150.052032 73.461418,150.107986 74.016647,150.301605 
z"/>
<path fill="#070604" opacity="1.000000" stroke="none" 
	d="
M72.998032,150.001526 
	C72.881256,149.866852 72.766457,149.730637 72.651649,149.594437 
	C72.732643,149.641357 72.813637,149.688293 72.948822,149.865646 
	C73.003006,149.996063 73.000000,150.000000 72.998032,150.001526 
z"/>
<path fill="#070604" opacity="1.000000" stroke="none" 
	d="
M86.337784,138.379974 
	C86.114304,138.268387 85.898300,138.109161 85.682297,137.949921 
	C85.863083,137.948471 86.043877,137.947021 86.332245,138.129517 
	C86.439835,138.313477 86.345253,138.332336 86.337784,138.379974 
z"/>
<path fill="#060503" opacity="1.000000" stroke="none" 
	d="
M47.371700,168.128601 
	C47.309391,167.910980 47.514076,167.603302 47.994476,167.218643 
	C48.059696,167.440628 47.849194,167.739594 47.371700,168.128601 
z"/>
<path fill="#E6C85F" opacity="1.000000" stroke="none" 
	d="
M182.095886,103.232819 
	C182.329742,103.115982 182.582840,103.318314 182.857651,103.836288 
	C182.601135,103.983398 182.346390,103.783417 182.095886,103.232819 
z"/>
</svg>