<?xml version="1.0" encoding="UTF-8"?>
<svg version="1.1" xmlns="http://www.w3.org/2000/svg" width="225" height="225">
<path d="M0 0 C74.25 0 148.5 0 225 0 C225 74.25 225 148.5 225 225 C150.75 225 76.5 225 0 225 C0 150.75 0 76.5 0 0 Z " fill="#FDFEFE" transform="translate(0,0)"/>
<path d="M0 0 C0 3.71174754 -0.96981969 4.58722586 -3.1875 7.5 C-6.95231728 12.74032142 -9.6672452 17.99294276 -12 24 C-12.48146484 25.18916016 -12.48146484 25.18916016 -12.97265625 26.40234375 C-18.90932055 43.88098794 -15.26963978 64.96282027 -7.4375 81.25 C2.40858146 100.35995578 19.26066402 112.87533281 39.62597656 119.41333008 C43.68517328 120.41644091 47.64822896 120.48836256 51.8125 120.4375 C52.68616211 120.42992676 53.55982422 120.42235352 54.45996094 120.41455078 C64.91758901 120.14933511 74.45183894 117.59881986 82 110 C90.13349932 100.18051335 92.31291709 89.68322126 91.33251953 77.13916016 C90.47525267 71.62420258 87.79067351 66.77570616 85 62 C98.07136209 66.63523478 109.08496022 79.79272949 115 92 C122.64960953 110.74050683 123.08875931 128.94997672 115.5625 147.765625 C108.29155165 163.63586802 95.97044501 174.6936566 79.75 181.00390625 C58.30323445 188.77226593 33.4047039 185.53808351 13 176 C-6.97156121 166.41192563 -22.05787994 152.35913549 -33 133 C-33.47308594 132.17886719 -33.94617187 131.35773438 -34.43359375 130.51171875 C-41.83591399 116.79090709 -45.39999414 100.86396179 -45.3125 85.375 C-45.30686035 84.32248047 -45.3012207 83.26996094 -45.29541016 82.18554688 C-44.89183536 56.05307977 -34.60252251 30.57194637 -16 12 C-6.05009202 2.67462697 -6.05009202 2.67462697 0 0 Z " fill="#4285F4" transform="translate(57,29)"/>
<path d="M0 0 C2.46765038 1.95072667 4.85965244 3.96618929 7.2421875 6.01953125 C7.91636719 6.54933594 8.59054688 7.07914063 9.28515625 7.625 C28.13129679 22.85990403 39.38181514 48.58760594 41.9609375 72.24609375 C43.95314047 98.97481695 37.8174774 126.13207635 20.0859375 146.8984375 C19.17328125 147.94837891 19.17328125 147.94837891 18.2421875 149.01953125 C17.79875 149.60605469 17.3553125 150.19257813 16.8984375 150.796875 C13.51531491 155.18049422 9.36124704 158.52283169 5.0546875 161.95703125 C4.43577637 162.45452881 3.81686523 162.95202637 3.17919922 163.46459961 C-1.38938263 167.01953125 -1.38938263 167.01953125 -4.7578125 167.01953125 C-4.24992187 166.38789063 -3.74203125 165.75625 -3.21875 165.10546875 C2.35481004 157.86192817 6.11696194 150.59686371 9.2421875 142.01953125 C9.58378906 141.10042969 9.92539063 140.18132812 10.27734375 139.234375 C15.8042659 121.36827783 12.79198294 101.48587654 4.4296875 85.08203125 C1.21070526 79.64277665 -2.6079008 74.77514998 -6.7578125 70.01953125 C-7.27730469 69.40464844 -7.79679687 68.78976563 -8.33203125 68.15625 C-18.49011514 57.02585581 -35.76469305 47.33424952 -50.9765625 46.5859375 C-52.73682782 46.56281711 -54.49751116 46.56183875 -56.2578125 46.58203125 C-57.17763916 46.58887939 -58.09746582 46.59572754 -59.04516602 46.6027832 C-69.00955751 46.83916637 -75.39669728 49.39452756 -82.7578125 56.01953125 C-83.4178125 56.01953125 -84.0778125 56.01953125 -84.7578125 56.01953125 C-85.03625 56.59960938 -85.3146875 57.1796875 -85.6015625 57.77734375 C-87.05549415 60.59679228 -88.78588522 63.18376273 -90.5390625 65.82421875 C-93.63937221 71.40875098 -94.14454161 76.58497559 -94.1328125 82.83203125 C-94.13265137 83.63084717 -94.13249023 84.42966309 -94.13232422 85.25268555 C-94.01439446 91.33351636 -92.84399706 95.75950135 -89.7578125 101.01953125 C-89.06993394 102.67755577 -88.39852357 104.34271535 -87.7578125 106.01953125 C-104.97875571 96.39207481 -116.41661765 82.5811858 -122.08203125 63.61328125 C-126.75662571 45.67148517 -123.03156608 27.59469222 -113.87255859 11.83398438 C-105.07693828 -2.48249618 -90.91981273 -12.41195206 -74.7578125 -16.85546875 C-49.31483785 -21.92584675 -20.962969 -15.05414346 0 0 Z " fill="#4285F4" transform="translate(171.7578125,29.98046875)"/>
</svg>
